<svg width="122" height="122" viewBox="0 0 122 122" fill="none" xmlns="http://www.w3.org/2000/svg">
<path d="M61 28L34 77.2963L47.5 68.4815L61 59.6667L74.2943 68.106L87.5886 76.5452L61 28Z" fill="#DCDCDC"/>
<path d="M34 77.2963L38.5 88L47.5 68.4815L34 77.2963Z" fill="#343434"/>
<path d="M85.3333 88L88 77.2963L87.5886 76.5452L74.2943 68.106L85.3333 88Z" fill="#343434"/>
<path d="M46 92.5L61 59.6667L47.5 76.4964L46 92.5Z" fill="#ADADAD"/>
<path fill-rule="evenodd" clip-rule="evenodd" d="M46 92.5L54.5 84L61 90.6667L69.2041 84L77.4083 92.5L69.2041 76.0833L61 59.6667L46 92.5Z" fill="white"/>
<path d="M61 59.6667L69.2041 76.0833L77.4083 92.5L74.5 76.4964L61 59.6667Z" fill="#ADADAD"/>
<path d="M38.5 88L46 92.5L47.5 76.4964L38.5 88Z" fill="#575757"/>
<path d="M77.4083 92.5L85.3333 88L74.5 76.4964L77.4083 92.5Z" fill="#575757"/>
<path d="M61 59.6667L47.5 68.4815L38.5 88L47.5 76.4964L61 59.6667Z" fill="#838383"/>
<path d="M74.2943 68.106L61 59.6667L74.5 76.4964L85.3333 88L74.2943 68.106Z" fill="#838383"/>
</svg>
